<?xml version="1.0" encoding="UTF-8"?>
<svg width="22px" height="13px" viewBox="0 0 22 13" version="1.1" xmlns="http://www.w3.org/2000/svg" xmlns:xlink="http://www.w3.org/1999/xlink">
    <!-- Generator: sketchtool 40.1 (33804) - http://www.bohemiancoding.com/sketch -->
    <title>B803B5C7-244E-4106-9103-3CDEFBBA9695</title>
    <desc>Created with sketchtool.</desc>
    <defs></defs>
    <g id="curriculum-vitae" stroke="none" stroke-width="1" fill="none" fill-rule="evenodd">
        <g id="Главная-страница" transform="translate(-807.000000, -870.000000)" fill="#D6D8D9">
            <g id="content">
                <g id="FEED" transform="translate(210.000000, 155.000000)">
                    <g id="education" transform="translate(589.592788, 440.711111)">
                        <g id="entry1" transform="translate(7.464533, 267.933333)">
                            <path d="M3.64658565,14.5532173 C4.13292811,16.1232065 4.75133771,16.8100246 6.81410056,17.5294289 C8.87791156,18.2479977 9.85793354,19.0334101 10.6671068,19.0334101 C11.4752319,19.0334101 12.394461,18.3465921 14.4572239,17.6263522 C16.5210349,16.9069478 15.969707,16.688035 16.4560495,15.1180457 L10.6671068,17.3623199 L3.64658565,14.5532173 L3.64658565,14.5532173 Z M20.6360791,10.4573751 L11.9102149,6.56206381 C11.2268199,6.25708984 10.1073937,6.25708984 9.42399867,6.56206381 L0.697086333,10.4573751 C0.0136913244,10.7623491 0.0136913244,11.2620051 0.697086333,11.566979 L9.42295052,15.4622903 C10.1063455,15.7672643 11.2257717,15.7672643 11.9091667,15.4622903 L17.55032,12.9439574 L11.4333058,11.8017672 C11.1974716,11.8477222 10.9385781,11.8736241 10.6671068,11.8736241 C9.56445102,11.8736241 8.67142564,11.4508383 8.67142564,10.9286226 C8.67142564,10.4047358 9.56549917,9.98194995 10.6671068,9.98194995 C11.5223987,9.98194995 12.2498161,10.2384623 12.5328171,10.5952401 L19.0124918,12.2905611 L20.6360791,11.5661435 C21.3184259,11.2620051 21.3184259,10.7623491 20.6360791,10.4573751 L20.6360791,10.4573751 Z M17.9695807,17.8385806 C17.9014509,18.1602655 19.3143596,18.6891656 19.448523,17.7491773 C20.0554029,13.5112925 19.0124918,12.2922322 19.0124918,12.2922322 L17.55032,12.9447929 C17.55032,12.9439574 18.7902836,13.8847812 17.9695807,17.8385806 L17.9695807,17.8385806 Z" id="education_icon"></path>
                        </g>
                    </g>
                </g>
            </g>
        </g>
    </g>
</svg>