<?xml version="1.0" encoding="UTF-8"?>
<svg width="22px" height="16px" viewBox="0 0 22 16" version="1.1" xmlns="http://www.w3.org/2000/svg" xmlns:xlink="http://www.w3.org/1999/xlink">
    <!-- Generator: sketchtool 40.1 (33804) - http://www.bohemiancoding.com/sketch -->
    <title>A25739B4-FC1E-49A4-BA73-BBE7F244A5E7</title>
    <desc>Created with sketchtool.</desc>
    <defs></defs>
    <g id="curriculum-vitae" stroke="none" stroke-width="1" fill="none" fill-rule="evenodd">
        <g id="Главная-страница" transform="translate(-277.000000, -776.000000)" fill="#D6D8D9">
            <g id="content">
                <g id="FEED" transform="translate(210.000000, 155.000000)">
                    <g id="work_experience" transform="translate(62.889897, 440.711111)">
                        <g id="entry1" transform="translate(4.167423, 177.933333)">
                            <path d="M18.8669692,5.50666667 L17.8188043,5.50666667 L17.8188043,18.04 L18.8669692,18.04 C20.0199507,18.04 20.9632991,17.288 20.9632991,16.3688889 L20.9632991,7.17777778 C20.9632991,6.25866667 20.0199507,5.50666667 18.8669692,5.50666667 L18.8669692,5.50666667 Z M0,7.17777778 L0,16.3688889 C0,17.288 0.942300296,18.04 2.09632991,18.04 L3.14449487,18.04 L3.14449487,5.50666667 L2.09632991,5.50666667 C0.942300296,5.50666667 0,6.25866667 0,7.17777778 L0,7.17777778 Z M14.1502269,3.75701333 C13.4364266,3.49297778 12.1702433,3 10.4617344,3 C8.75008105,3 7.52687255,3.49297778 6.81307222,3.75701333 L6.81307222,5.50666667 L4.19265982,5.50666667 L4.19265982,18.04 L16.7706393,18.04 L16.7706393,5.50666667 L14.1502269,5.50666667 L14.1502269,3.75701333 L14.1502269,3.75701333 Z M12.5779795,5.50666667 L8.38531965,5.50666667 L8.38531965,4.39036444 C8.94503974,4.19818667 9.51524147,4.00183111 10.4617344,4.00183111 C11.4071792,4.00183111 12.0193076,4.19735111 12.5779795,4.39036444 L12.5779795,5.50666667 L12.5779795,5.50666667 Z" id="work_icon"></path>
                        </g>
                    </g>
                </g>
            </g>
        </g>
    </g>
</svg>